<svg xmlns="http://www.w3.org/2000/svg" width="540" height="210" viewBox="0 0 540 210" role="img" aria-label="Best Paper Award, ACL 2026 Workshop on Trustworthy NLP">
<g><path d="M 164.5 167.9 L 151.7 157.0 L 141.5 145.0 L 134.1 132.2 L 129.5 118.7 L 128.0 105.0 L 129.5 91.3 L 134.1 77.8 L 141.5 65.0 L 151.7 53.0 L 164.5 42.1" fill="none" stroke="#8B6914" stroke-width="2.5" stroke-linecap="round"/>
<path d="M 151.7 157.0 Q 144.5 164.6 149.2 173.8 Q 156.4 166.3 151.7 157.0 Z" fill="#B8860B"/>
<path d="M 151.7 157.0 Q 158.5 164.9 168.2 161.2 Q 161.5 153.3 151.7 157.0 Z" fill="#B8860B"/>
<path d="M 141.5 145.0 Q 133.3 151.4 136.6 161.3 Q 144.8 154.9 141.5 145.0 Z" fill="#D4A62A"/>
<path d="M 141.5 145.0 Q 147.0 153.8 157.2 151.6 Q 151.7 142.8 141.5 145.0 Z" fill="#D4A62A"/>
<path d="M 134.1 132.2 Q 125.0 137.3 126.8 147.6 Q 135.9 142.4 134.1 132.2 Z" fill="#B8860B"/>
<path d="M 134.1 132.2 Q 138.2 141.7 148.6 141.0 Q 144.4 131.4 134.1 132.2 Z" fill="#B8860B"/>
<path d="M 129.5 118.7 Q 119.8 122.5 120.1 132.9 Q 129.8 129.1 129.5 118.7 Z" fill="#D4A62A"/>
<path d="M 129.5 118.7 Q 132.2 128.8 142.6 129.6 Q 139.9 119.5 129.5 118.7 Z" fill="#D4A62A"/>
<path d="M 128.0 105.0 Q 117.9 107.3 116.6 117.6 Q 126.8 115.3 128.0 105.0 Z" fill="#B8860B"/>
<path d="M 128.0 105.0 Q 129.2 115.3 139.4 117.6 Q 138.1 107.3 128.0 105.0 Z" fill="#B8860B"/>
<path d="M 129.5 91.3 Q 119.1 92.1 116.4 102.1 Q 126.8 101.3 129.5 91.3 Z" fill="#D4A62A"/>
<path d="M 129.5 91.3 Q 129.2 101.7 138.9 105.4 Q 139.2 95.0 129.5 91.3 Z" fill="#D4A62A"/>
<path d="M 134.1 77.8 Q 123.7 77.1 119.5 86.6 Q 129.9 87.4 134.1 77.8 Z" fill="#B8860B"/>
<path d="M 134.1 77.8 Q 132.3 88.1 141.3 93.2 Q 143.1 83.0 134.1 77.8 Z" fill="#B8860B"/>
<path d="M 141.5 65.0 Q 131.4 62.7 125.8 71.6 Q 136.0 73.8 141.5 65.0 Z" fill="#D4A62A"/>
<path d="M 141.5 65.0 Q 138.2 74.8 146.4 81.3 Q 149.7 71.4 141.5 65.0 Z" fill="#D4A62A"/>
<path d="M 151.7 53.0 Q 142.0 49.3 135.3 57.2 Q 145.0 60.9 151.7 53.0 Z" fill="#B8860B"/>
<path d="M 151.7 53.0 Q 147.0 62.3 154.2 69.8 Q 158.9 60.5 151.7 53.0 Z" fill="#B8860B"/>
<path d="M 164.5 42.1 Q 157.9 36.8 152.5 43.4 Q 159.1 48.7 164.5 42.1 Z" fill="#D4A62A"/>
<path d="M 164.5 42.1 Q 158.5 48.1 164.5 54.1 Q 170.5 48.1 164.5 42.1 Z" fill="#D4A62A"/></g>
<g transform="translate(540,0) scale(-1,1)"><path d="M 164.5 167.9 L 151.7 157.0 L 141.5 145.0 L 134.1 132.2 L 129.5 118.7 L 128.0 105.0 L 129.5 91.3 L 134.1 77.8 L 141.5 65.0 L 151.7 53.0 L 164.5 42.1" fill="none" stroke="#8B6914" stroke-width="2.5" stroke-linecap="round"/>
<path d="M 151.7 157.0 Q 144.5 164.6 149.2 173.8 Q 156.4 166.3 151.7 157.0 Z" fill="#B8860B"/>
<path d="M 151.7 157.0 Q 158.5 164.9 168.2 161.2 Q 161.5 153.3 151.7 157.0 Z" fill="#B8860B"/>
<path d="M 141.5 145.0 Q 133.3 151.4 136.6 161.3 Q 144.8 154.9 141.5 145.0 Z" fill="#D4A62A"/>
<path d="M 141.5 145.0 Q 147.0 153.8 157.2 151.6 Q 151.7 142.8 141.5 145.0 Z" fill="#D4A62A"/>
<path d="M 134.1 132.2 Q 125.0 137.3 126.8 147.6 Q 135.9 142.4 134.1 132.2 Z" fill="#B8860B"/>
<path d="M 134.1 132.2 Q 138.2 141.7 148.6 141.0 Q 144.4 131.4 134.1 132.2 Z" fill="#B8860B"/>
<path d="M 129.5 118.7 Q 119.8 122.5 120.1 132.9 Q 129.8 129.1 129.5 118.7 Z" fill="#D4A62A"/>
<path d="M 129.5 118.7 Q 132.2 128.8 142.6 129.6 Q 139.9 119.5 129.5 118.7 Z" fill="#D4A62A"/>
<path d="M 128.0 105.0 Q 117.9 107.3 116.6 117.6 Q 126.8 115.3 128.0 105.0 Z" fill="#B8860B"/>
<path d="M 128.0 105.0 Q 129.2 115.3 139.4 117.6 Q 138.1 107.3 128.0 105.0 Z" fill="#B8860B"/>
<path d="M 129.5 91.3 Q 119.1 92.1 116.4 102.1 Q 126.8 101.3 129.5 91.3 Z" fill="#D4A62A"/>
<path d="M 129.5 91.3 Q 129.2 101.7 138.9 105.4 Q 139.2 95.0 129.5 91.3 Z" fill="#D4A62A"/>
<path d="M 134.1 77.8 Q 123.7 77.1 119.5 86.6 Q 129.9 87.4 134.1 77.8 Z" fill="#B8860B"/>
<path d="M 134.1 77.8 Q 132.3 88.1 141.3 93.2 Q 143.1 83.0 134.1 77.8 Z" fill="#B8860B"/>
<path d="M 141.5 65.0 Q 131.4 62.7 125.8 71.6 Q 136.0 73.8 141.5 65.0 Z" fill="#D4A62A"/>
<path d="M 141.5 65.0 Q 138.2 74.8 146.4 81.3 Q 149.7 71.4 141.5 65.0 Z" fill="#D4A62A"/>
<path d="M 151.7 53.0 Q 142.0 49.3 135.3 57.2 Q 145.0 60.9 151.7 53.0 Z" fill="#B8860B"/>
<path d="M 151.7 53.0 Q 147.0 62.3 154.2 69.8 Q 158.9 60.5 151.7 53.0 Z" fill="#B8860B"/>
<path d="M 164.5 42.1 Q 157.9 36.8 152.5 43.4 Q 159.1 48.7 164.5 42.1 Z" fill="#D4A62A"/>
<path d="M 164.5 42.1 Q 158.5 48.1 164.5 54.1 Q 170.5 48.1 164.5 42.1 Z" fill="#D4A62A"/></g>
<text x="270.0" y="75.0" text-anchor="middle" font-family="Georgia,'Times New Roman',serif" font-size="11" letter-spacing="3" fill="#8B6914">HONORED WITH THE</text>
<text x="270.0" y="99.0" text-anchor="middle" font-family="Georgia,'Times New Roman',serif" font-size="17" letter-spacing="3" fill="#B8860B">B E S T&#160;&#160;P A P E R</text>
<text x="270.0" y="127.0" text-anchor="middle" font-family="Georgia,'Times New Roman',serif" font-size="27" font-weight="bold" letter-spacing="3" fill="#8B6914">AWARD</text>
<line x1="212.0" y1="141.0" x2="328.0" y2="141.0" stroke="#B8860B" stroke-width="1"/>
<text x="270.0" y="158.0" text-anchor="middle" font-family="Georgia,serif" font-size="10.5" letter-spacing="0.5" fill="#8B6914">ACL 2026 · TrustNLP Workshop</text>
</svg>